<mxfile host="65bd71144e">
    <diagram id="DaXE-o2KZrVlD39p2i48" name="Page-1">
        <mxGraphModel dx="2316" dy="1509" grid="0" gridSize="10" guides="1" tooltips="1" connect="1" arrows="1" fold="1" page="0" pageScale="1" pageWidth="1169" pageHeight="1654" background="#ffffff" math="0" shadow="0">
            <root>
                <mxCell id="0"/>
                <mxCell id="1" parent="0"/>
                <mxCell id="2" value="ADMIN" style="rounded=0;whiteSpace=wrap;html=1;fontFamily=Times New Roman;fontSize=14;fillColor=none;strokeColor=#000000;fontColor=#000000;fontStyle=1" parent="1" vertex="1">
                    <mxGeometry x="372" y="232" width="120" height="60" as="geometry"/>
                </mxCell>
                <mxCell id="3" value="Admin&amp;nbsp;&lt;br style=&quot;font-size: 14px;&quot;&gt;Id" style="ellipse;whiteSpace=wrap;html=1;fontFamily=Times New Roman;fontSize=14;fillColor=none;strokeColor=#000000;fontColor=#000000;fontStyle=1" parent="1" vertex="1">
                    <mxGeometry x="273" y="306" width="90" height="60" as="geometry"/>
                </mxCell>
                <mxCell id="4" value="Admin&amp;nbsp;&lt;br style=&quot;font-size: 14px;&quot;&gt;Name" style="ellipse;whiteSpace=wrap;html=1;fontFamily=Times New Roman;fontSize=14;fillColor=none;strokeColor=#000000;fontColor=#000000;fontStyle=1" parent="1" vertex="1">
                    <mxGeometry x="344" y="354" width="90" height="60" as="geometry"/>
                </mxCell>
                <mxCell id="5" value="Password" style="ellipse;whiteSpace=wrap;html=1;fontFamily=Times New Roman;fontSize=14;fillColor=none;strokeColor=#000000;fontColor=#000000;fontStyle=1" parent="1" vertex="1">
                    <mxGeometry x="441" y="369" width="90" height="60" as="geometry"/>
                </mxCell>
                <mxCell id="6" value="Admin&amp;nbsp;&lt;br style=&quot;font-size: 14px;&quot;&gt;Login&amp;nbsp;" style="ellipse;whiteSpace=wrap;html=1;fontFamily=Times New Roman;fontSize=14;fillColor=none;strokeColor=#000000;fontColor=#000000;fontStyle=1" parent="1" vertex="1">
                    <mxGeometry x="501" y="309" width="90" height="60" as="geometry"/>
                </mxCell>
                <mxCell id="258" style="edgeStyle=none;html=1;exitX=0.5;exitY=0;exitDx=0;exitDy=0;entryX=1;entryY=0.5;entryDx=0;entryDy=0;strokeColor=#000000;rounded=0;" parent="1" source="13" target="2" edge="1">
                    <mxGeometry relative="1" as="geometry">
                        <Array as="points">
                            <mxPoint x="692" y="262"/>
                        </Array>
                    </mxGeometry>
                </mxCell>
                <mxCell id="13" value="manages" style="rhombus;whiteSpace=wrap;html=1;fontFamily=Times New Roman;fontSize=14;fillColor=none;strokeColor=#000000;fontColor=#000000;fontStyle=1" parent="1" vertex="1">
                    <mxGeometry x="652" y="342" width="80" height="80" as="geometry"/>
                </mxCell>
                <mxCell id="15" value="PRODUCTS" style="rounded=0;whiteSpace=wrap;html=1;fontFamily=Times New Roman;fontSize=14;fillColor=none;strokeColor=#000000;fontColor=#000000;fontStyle=1" parent="1" vertex="1">
                    <mxGeometry x="632" y="505" width="120" height="60" as="geometry"/>
                </mxCell>
                <mxCell id="18" value="Product&lt;br style=&quot;font-size: 14px;&quot;&gt;Id" style="ellipse;whiteSpace=wrap;html=1;fontFamily=Times New Roman;fontSize=14;fillColor=none;strokeColor=#000000;fontColor=#000000;fontStyle=1" parent="1" vertex="1">
                    <mxGeometry x="716" y="705" width="90" height="60" as="geometry"/>
                </mxCell>
                <mxCell id="19" value="Product&amp;nbsp;&lt;br style=&quot;font-size: 14px;&quot;&gt;Name" style="ellipse;whiteSpace=wrap;html=1;fontFamily=Times New Roman;fontSize=14;fillColor=none;strokeColor=#000000;fontColor=#000000;fontStyle=1" parent="1" vertex="1">
                    <mxGeometry x="539" y="648" width="90" height="60" as="geometry"/>
                </mxCell>
                <mxCell id="20" value="Stock&lt;br style=&quot;font-size: 14px;&quot;&gt;Status" style="ellipse;whiteSpace=wrap;html=1;fontFamily=Times New Roman;fontSize=14;fillColor=none;strokeColor=#000000;fontColor=#000000;fontStyle=1" parent="1" vertex="1">
                    <mxGeometry x="524" y="584" width="90" height="60" as="geometry"/>
                </mxCell>
                <mxCell id="21" value="Img" style="ellipse;whiteSpace=wrap;html=1;fontFamily=Times New Roman;fontSize=14;fillColor=none;strokeColor=#000000;fontColor=#000000;fontStyle=1" parent="1" vertex="1">
                    <mxGeometry x="783" y="656" width="90" height="60" as="geometry"/>
                </mxCell>
                <mxCell id="28" value="Quantity" style="ellipse;whiteSpace=wrap;html=1;fontFamily=Times New Roman;fontSize=14;fillColor=none;strokeColor=#000000;fontColor=#000000;fontStyle=1" parent="1" vertex="1">
                    <mxGeometry x="626" y="683" width="90" height="60" as="geometry"/>
                </mxCell>
                <mxCell id="29" value="Category&lt;br style=&quot;font-size: 14px;&quot;&gt;Id" style="ellipse;whiteSpace=wrap;html=1;fontFamily=Times New Roman;fontSize=14;fillColor=none;strokeColor=#000000;fontColor=#000000;fontStyle=1" parent="1" vertex="1">
                    <mxGeometry x="207" y="576" width="90" height="60" as="geometry"/>
                </mxCell>
                <mxCell id="30" value="CATEGORY" style="rounded=0;whiteSpace=wrap;html=1;fontFamily=Times New Roman;fontSize=14;fillColor=none;strokeColor=#000000;fontColor=#000000;fontStyle=1" parent="1" vertex="1">
                    <mxGeometry x="277" y="495" width="120" height="60" as="geometry"/>
                </mxCell>
                <mxCell id="32" value="FOR" style="rhombus;whiteSpace=wrap;html=1;fontFamily=Times New Roman;fontSize=14;fillColor=none;strokeColor=#000000;fontColor=#000000;fontStyle=1" parent="1" vertex="1">
                    <mxGeometry x="475" y="485" width="80" height="80" as="geometry"/>
                </mxCell>
                <mxCell id="35" value="Category&amp;nbsp;&lt;br style=&quot;font-size: 14px;&quot;&gt;Name" style="ellipse;whiteSpace=wrap;html=1;fontFamily=Times New Roman;fontSize=14;fillColor=none;strokeColor=#000000;fontColor=#000000;fontStyle=1" parent="1" vertex="1">
                    <mxGeometry x="377" y="576" width="90" height="60" as="geometry"/>
                </mxCell>
                <mxCell id="38" value="Status" style="ellipse;whiteSpace=wrap;html=1;fontFamily=Times New Roman;fontSize=14;fillColor=none;strokeColor=#000000;fontColor=#000000;fontStyle=1" parent="1" vertex="1">
                    <mxGeometry x="292" y="609" width="90" height="60" as="geometry"/>
                </mxCell>
                <mxCell id="40" value="MOVE TO" style="rhombus;whiteSpace=wrap;html=1;fontFamily=Times New Roman;fontSize=14;fillColor=none;strokeColor=#000000;fontColor=#000000;fontStyle=1" parent="1" vertex="1">
                    <mxGeometry x="790" y="488" width="80" height="80" as="geometry"/>
                </mxCell>
                <mxCell id="42" value="Billing" style="rounded=0;whiteSpace=wrap;html=1;fontFamily=Times New Roman;fontSize=14;fillColor=none;strokeColor=#000000;fontColor=#000000;fontStyle=1" parent="1" vertex="1">
                    <mxGeometry x="-176" y="1020" width="130" height="60" as="geometry"/>
                </mxCell>
                <mxCell id="44" value="Price" style="ellipse;whiteSpace=wrap;html=1;fontFamily=Times New Roman;fontSize=14;fillColor=none;strokeColor=#000000;fontColor=#000000;fontStyle=1" parent="1" vertex="1">
                    <mxGeometry x="785" y="588" width="90" height="60" as="geometry"/>
                </mxCell>
                <mxCell id="46" value="Bill&lt;br style=&quot;font-size: 14px;&quot;&gt;id" style="ellipse;whiteSpace=wrap;html=1;fontFamily=Times New Roman;fontSize=14;fillColor=none;strokeColor=#000000;fontColor=#000000;fontStyle=1" parent="1" vertex="1">
                    <mxGeometry x="-26" y="957" width="90" height="60" as="geometry"/>
                </mxCell>
                <mxCell id="47" value="F_name" style="ellipse;whiteSpace=wrap;html=1;fontFamily=Times New Roman;fontSize=14;fillColor=none;strokeColor=#000000;fontColor=#000000;fontStyle=1" parent="1" vertex="1">
                    <mxGeometry x="-258" y="946" width="90" height="60" as="geometry"/>
                </mxCell>
                <mxCell id="48" value="L_name" style="ellipse;whiteSpace=wrap;html=1;fontFamily=Times New Roman;fontSize=14;fillColor=none;strokeColor=#000000;fontColor=#000000;fontStyle=1" parent="1" vertex="1">
                    <mxGeometry x="-221" y="874" width="90" height="60" as="geometry"/>
                </mxCell>
                <mxCell id="50" value="Address" style="ellipse;whiteSpace=wrap;html=1;fontFamily=Times New Roman;fontSize=14;fillColor=none;strokeColor=#000000;fontColor=#000000;fontStyle=1" parent="1" vertex="1">
                    <mxGeometry x="-62" y="886" width="90" height="60" as="geometry"/>
                </mxCell>
                <mxCell id="52" value="city" style="ellipse;whiteSpace=wrap;html=1;fontFamily=Times New Roman;fontSize=14;fillColor=none;strokeColor=#000000;fontColor=#000000;fontStyle=1" parent="1" vertex="1">
                    <mxGeometry x="-139" y="833" width="90" height="60" as="geometry"/>
                </mxCell>
                <mxCell id="57" value="ADD TO" style="rhombus;whiteSpace=wrap;html=1;fontFamily=Times New Roman;fontSize=14;fillColor=none;strokeColor=#000000;fontColor=#000000;fontStyle=1" parent="1" vertex="1">
                    <mxGeometry x="927" y="342" width="80" height="80" as="geometry"/>
                </mxCell>
                <mxCell id="58" value="CUSTOMER" style="rounded=0;whiteSpace=wrap;html=1;direction=east;fontFamily=Times New Roman;fontSize=14;fillColor=none;strokeColor=#000000;fontColor=#000000;fontStyle=1" parent="1" vertex="1">
                    <mxGeometry x="907" y="222" width="120" height="60" as="geometry"/>
                </mxCell>
                <mxCell id="60" value="" style="endArrow=none;html=1;entryX=0.5;entryY=0;entryDx=0;entryDy=0;exitX=0.5;exitY=1;exitDx=0;exitDy=0;fontColor=#000000;fontFamily=Times New Roman;fontSize=14;fillColor=none;strokeColor=#000000;fontStyle=1" parent="1" source="58" target="57" edge="1">
                    <mxGeometry width="50" height="50" relative="1" as="geometry">
                        <mxPoint x="1262" y="262" as="sourcePoint"/>
                        <mxPoint x="1312" y="212" as="targetPoint"/>
                    </mxGeometry>
                </mxCell>
                <mxCell id="61" value="Cust&lt;br style=&quot;font-size: 14px;&quot;&gt;id" style="ellipse;whiteSpace=wrap;html=1;fontFamily=Times New Roman;fontSize=14;fillColor=none;strokeColor=#000000;fontColor=#000000;fontStyle=1" parent="1" vertex="1">
                    <mxGeometry x="1036" y="115" width="90" height="57" as="geometry"/>
                </mxCell>
                <mxCell id="62" value="Cust&lt;br style=&quot;font-size: 14px;&quot;&gt;F_name" style="ellipse;whiteSpace=wrap;html=1;fontFamily=Times New Roman;fontSize=14;fillColor=none;strokeColor=#000000;fontColor=#000000;fontStyle=1" parent="1" vertex="1">
                    <mxGeometry x="1140" y="80" width="90" height="60" as="geometry"/>
                </mxCell>
                <mxCell id="63" value="Password" style="ellipse;whiteSpace=wrap;html=1;fontFamily=Times New Roman;fontSize=14;fillColor=none;strokeColor=#000000;fontColor=#000000;fontStyle=1" parent="1" vertex="1">
                    <mxGeometry x="1172" y="312" width="90" height="60" as="geometry"/>
                </mxCell>
                <mxCell id="65" value="Cust&lt;br style=&quot;font-size: 14px;&quot;&gt;L_name" style="ellipse;whiteSpace=wrap;html=1;fontFamily=Times New Roman;fontSize=14;fillColor=none;strokeColor=#000000;fontColor=#000000;fontStyle=1" parent="1" vertex="1">
                    <mxGeometry x="1280" y="72" width="90" height="60" as="geometry"/>
                </mxCell>
                <mxCell id="67" value="Address_1" style="ellipse;whiteSpace=wrap;html=1;fontFamily=Times New Roman;fontSize=14;fillColor=none;strokeColor=#000000;fontColor=#000000;fontStyle=1" parent="1" vertex="1">
                    <mxGeometry x="1210" y="140" width="90" height="60" as="geometry"/>
                </mxCell>
                <mxCell id="68" value="Address_2" style="ellipse;whiteSpace=wrap;html=1;fontFamily=Times New Roman;fontSize=14;fillColor=none;strokeColor=#000000;fontColor=#000000;fontStyle=1" parent="1" vertex="1">
                    <mxGeometry x="1310" y="172" width="90" height="60" as="geometry"/>
                </mxCell>
                <mxCell id="69" value="Contact" style="ellipse;whiteSpace=wrap;html=1;fontFamily=Times New Roman;fontSize=14;fillColor=none;strokeColor=#000000;fontColor=#000000;fontStyle=1" parent="1" vertex="1">
                    <mxGeometry x="1220" y="222" width="90" height="60" as="geometry"/>
                </mxCell>
                <mxCell id="70" value="mail" style="ellipse;whiteSpace=wrap;html=1;fontFamily=Times New Roman;fontSize=14;fillColor=none;strokeColor=#000000;fontColor=#000000;fontStyle=1" parent="1" vertex="1">
                    <mxGeometry x="1071" y="316" width="90" height="60" as="geometry"/>
                </mxCell>
                <mxCell id="79" value="MANAGES" style="rhombus;whiteSpace=wrap;html=1;fontFamily=Times New Roman;fontSize=14;fillColor=none;strokeColor=#000000;fontColor=#000000;fontStyle=1" parent="1" vertex="1">
                    <mxGeometry x="202" y="222" width="80" height="80" as="geometry"/>
                </mxCell>
                <mxCell id="81" value="SUPPLIERS" style="rounded=0;whiteSpace=wrap;html=1;fontFamily=Times New Roman;fontSize=14;fillColor=none;strokeColor=#000000;fontColor=#000000;fontStyle=1" parent="1" vertex="1">
                    <mxGeometry x="-128" y="232" width="120" height="60" as="geometry"/>
                </mxCell>
                <mxCell id="83" value="Supplier&lt;br style=&quot;font-size: 14px;&quot;&gt;id" style="ellipse;whiteSpace=wrap;html=1;fontFamily=Times New Roman;fontSize=14;fillColor=none;strokeColor=#000000;fontColor=#000000;fontStyle=1" parent="1" vertex="1">
                    <mxGeometry x="1" y="299" width="90" height="60" as="geometry"/>
                </mxCell>
                <mxCell id="89" value="Company&lt;br&gt;name" style="ellipse;whiteSpace=wrap;html=1;fontFamily=Times New Roman;fontSize=14;fillColor=none;strokeColor=#000000;fontColor=#000000;fontStyle=1" parent="1" vertex="1">
                    <mxGeometry x="-8" y="372" width="90" height="60" as="geometry"/>
                </mxCell>
                <mxCell id="90" value="Address_1" style="ellipse;whiteSpace=wrap;html=1;fontFamily=Times New Roman;fontSize=14;fillColor=none;strokeColor=#000000;fontColor=#000000;fontStyle=1" parent="1" vertex="1">
                    <mxGeometry x="-212" y="309" width="90" height="60" as="geometry"/>
                </mxCell>
                <mxCell id="91" value="Address_2" style="ellipse;whiteSpace=wrap;html=1;fontFamily=Times New Roman;fontSize=14;fillColor=none;strokeColor=#000000;fontColor=#000000;fontStyle=1" parent="1" vertex="1">
                    <mxGeometry x="-161" y="369" width="90" height="60" as="geometry"/>
                </mxCell>
                <mxCell id="98" value="REQUEST" style="rhombus;whiteSpace=wrap;html=1;fontFamily=Times New Roman;fontSize=14;fillColor=none;strokeColor=#000000;fontColor=#000000;fontStyle=1" parent="1" vertex="1">
                    <mxGeometry x="732" y="212" width="80" height="80" as="geometry"/>
                </mxCell>
                <mxCell id="99" value="SALES_RETURN" style="rounded=0;whiteSpace=wrap;html=1;fontFamily=Times New Roman;fontSize=14;fillColor=none;strokeColor=#000000;fontColor=#000000;fontStyle=1" parent="1" vertex="1">
                    <mxGeometry x="694.5" y="80" width="155" height="60" as="geometry"/>
                </mxCell>
                <mxCell id="102" value="Return&lt;br style=&quot;font-size: 14px;&quot;&gt;id" style="ellipse;whiteSpace=wrap;html=1;fontFamily=Times New Roman;fontSize=14;fillColor=none;strokeColor=#000000;fontColor=#000000;fontStyle=1" parent="1" vertex="1">
                    <mxGeometry x="632" y="-34" width="90" height="60" as="geometry"/>
                </mxCell>
                <mxCell id="104" value="address1" style="ellipse;whiteSpace=wrap;html=1;fontFamily=Times New Roman;fontSize=14;fillColor=none;strokeColor=#000000;fontColor=#000000;fontStyle=1" parent="1" vertex="1">
                    <mxGeometry x="859" y="20" width="90" height="60" as="geometry"/>
                </mxCell>
                <mxCell id="107" value="address2" style="ellipse;whiteSpace=wrap;html=1;fontFamily=Times New Roman;fontSize=14;fillColor=none;strokeColor=#000000;fontColor=#000000;fontStyle=1" parent="1" vertex="1">
                    <mxGeometry x="602" y="29" width="90" height="60" as="geometry"/>
                </mxCell>
                <mxCell id="115" value="ORDER" style="rounded=0;whiteSpace=wrap;html=1;fontFamily=Times New Roman;fontSize=14;fillColor=none;strokeColor=#000000;fontColor=#000000;fontStyle=1" parent="1" vertex="1">
                    <mxGeometry x="907" y="785" width="120" height="60" as="geometry"/>
                </mxCell>
                <mxCell id="117" value="Order_id" style="ellipse;whiteSpace=wrap;html=1;fontFamily=Times New Roman;fontSize=14;fillColor=none;strokeColor=#000000;fontColor=#000000;fontStyle=1" parent="1" vertex="1">
                    <mxGeometry x="1034" y="702" width="90" height="60" as="geometry"/>
                </mxCell>
                <mxCell id="118" value="order_date" style="ellipse;whiteSpace=wrap;html=1;fontFamily=Times New Roman;fontSize=14;fillColor=none;strokeColor=#000000;fontColor=#000000;fontStyle=1" parent="1" vertex="1">
                    <mxGeometry x="1143" y="818" width="90" height="60" as="geometry"/>
                </mxCell>
                <mxCell id="119" value="order_status" style="ellipse;whiteSpace=wrap;html=1;fontFamily=Times New Roman;fontSize=14;fillColor=none;strokeColor=#000000;fontColor=#000000;fontStyle=1" parent="1" vertex="1">
                    <mxGeometry x="1132" y="743" width="90" height="60" as="geometry"/>
                </mxCell>
                <mxCell id="122" value="quantity" style="ellipse;whiteSpace=wrap;html=1;fontFamily=Times New Roman;fontSize=14;fillColor=none;strokeColor=#000000;fontColor=#000000;fontStyle=1" parent="1" vertex="1">
                    <mxGeometry x="1059" y="863" width="90" height="60" as="geometry"/>
                </mxCell>
                <mxCell id="134" value="HAS" style="rhombus;whiteSpace=wrap;html=1;fontFamily=Times New Roman;fontSize=14;fillColor=none;strokeColor=#000000;fontColor=#000000;fontStyle=1" parent="1" vertex="1">
                    <mxGeometry x="927" y="1010" width="80" height="80" as="geometry"/>
                </mxCell>
                <mxCell id="139" value="order_details" style="rounded=0;whiteSpace=wrap;html=1;fontFamily=Times New Roman;fontSize=14;fillColor=none;strokeColor=#000000;fontColor=#000000;fontStyle=1" parent="1" vertex="1">
                    <mxGeometry x="682" y="1020" width="120" height="60" as="geometry"/>
                </mxCell>
                <mxCell id="141" value="price" style="ellipse;whiteSpace=wrap;html=1;fontFamily=Times New Roman;fontSize=14;fillColor=none;strokeColor=#000000;fontColor=#000000;fontStyle=1" parent="1" vertex="1">
                    <mxGeometry x="807" y="943" width="90" height="60" as="geometry"/>
                </mxCell>
                <mxCell id="142" value="id" style="ellipse;whiteSpace=wrap;html=1;fontFamily=Times New Roman;fontSize=14;fillColor=none;strokeColor=#000000;fontColor=#000000;fontStyle=1" parent="1" vertex="1">
                    <mxGeometry x="745" y="883" width="90" height="60" as="geometry"/>
                </mxCell>
                <mxCell id="145" value="genertaes" style="rhombus;whiteSpace=wrap;html=1;fontFamily=Times New Roman;fontSize=14;fillColor=none;strokeColor=#000000;fontColor=#000000;fontStyle=1" parent="1" vertex="1">
                    <mxGeometry x="482" y="1010" width="80" height="80" as="geometry"/>
                </mxCell>
                <mxCell id="146" value="" style="endArrow=none;html=1;entryX=0;entryY=0.5;entryDx=0;entryDy=0;exitX=1;exitY=0.5;exitDx=0;exitDy=0;fontColor=#000000;fontFamily=Times New Roman;fontSize=14;fillColor=none;strokeColor=#000000;fontStyle=1" parent="1" source="145" target="139" edge="1">
                    <mxGeometry width="50" height="50" relative="1" as="geometry">
                        <mxPoint x="1192" y="1002" as="sourcePoint"/>
                        <mxPoint x="1242" y="952" as="targetPoint"/>
                    </mxGeometry>
                </mxCell>
                <mxCell id="148" value="CART" style="rounded=0;whiteSpace=wrap;html=1;fontFamily=Times New Roman;fontSize=14;fillColor=none;strokeColor=#000000;fontColor=#000000;fontStyle=1" parent="1" vertex="1">
                    <mxGeometry x="907" y="498" width="120" height="60" as="geometry"/>
                </mxCell>
                <mxCell id="150" value="PLACE" style="rhombus;whiteSpace=wrap;html=1;fontFamily=Times New Roman;fontSize=14;fillColor=none;strokeColor=#000000;fontColor=#000000;fontStyle=1" parent="1" vertex="1">
                    <mxGeometry x="927" y="612" width="80" height="80" as="geometry"/>
                </mxCell>
                <mxCell id="153" value="cart_id" style="ellipse;whiteSpace=wrap;html=1;fontFamily=Times New Roman;fontSize=14;fillColor=none;strokeColor=#000000;fontColor=#000000;fontStyle=1" parent="1" vertex="1">
                    <mxGeometry x="1053" y="450" width="90" height="60" as="geometry"/>
                </mxCell>
                <mxCell id="159" value="quantity" style="ellipse;whiteSpace=wrap;html=1;fontFamily=Times New Roman;fontSize=14;fillColor=none;strokeColor=#000000;fontColor=#000000;fontStyle=1" parent="1" vertex="1">
                    <mxGeometry x="1064" y="537" width="90" height="60" as="geometry"/>
                </mxCell>
                <mxCell id="227" value="" style="endArrow=none;html=1;entryX=0.5;entryY=1;entryDx=0;entryDy=0;exitX=0.5;exitY=0;exitDx=0;exitDy=0;fontColor=#000000;fontFamily=Times New Roman;fontSize=14;fillColor=none;strokeColor=#000000;fontStyle=1" parent="1" source="134" target="115" edge="1">
                    <mxGeometry width="50" height="50" relative="1" as="geometry">
                        <mxPoint x="832" y="922" as="sourcePoint"/>
                        <mxPoint x="882" y="872" as="targetPoint"/>
                    </mxGeometry>
                </mxCell>
                <mxCell id="ylkIkgIqxPqcDmFFb2RJ-252" value="" style="endArrow=none;html=1;rounded=0;entryX=0.5;entryY=1;entryDx=0;entryDy=0;fontColor=#000000;fontFamily=Times New Roman;fontSize=14;fillColor=none;strokeColor=#000000;fontStyle=1" parent="1" source="90" target="81" edge="1">
                    <mxGeometry width="50" height="50" relative="1" as="geometry">
                        <mxPoint x="32" y="346" as="sourcePoint"/>
                        <mxPoint x="82" y="296" as="targetPoint"/>
                    </mxGeometry>
                </mxCell>
                <mxCell id="ylkIkgIqxPqcDmFFb2RJ-253" value="" style="endArrow=none;html=1;rounded=0;entryX=0.5;entryY=1;entryDx=0;entryDy=0;fontColor=#000000;fontFamily=Times New Roman;fontSize=14;fillColor=none;strokeColor=#000000;fontStyle=1" parent="1" source="91" target="81" edge="1">
                    <mxGeometry width="50" height="50" relative="1" as="geometry">
                        <mxPoint x="-21.180194846605445" y="350.78679656440363" as="sourcePoint"/>
                        <mxPoint x="37" y="296" as="targetPoint"/>
                    </mxGeometry>
                </mxCell>
                <mxCell id="ylkIkgIqxPqcDmFFb2RJ-256" value="" style="endArrow=none;html=1;rounded=0;exitX=0.244;exitY=0.05;exitDx=0;exitDy=0;exitPerimeter=0;entryX=0.5;entryY=1;entryDx=0;entryDy=0;fontColor=#000000;fontFamily=Times New Roman;fontSize=14;fillColor=none;strokeColor=#000000;fontStyle=1" parent="1" source="89" target="81" edge="1">
                    <mxGeometry width="50" height="50" relative="1" as="geometry">
                        <mxPoint x="8.819805153394555" y="380.78679656440363" as="sourcePoint"/>
                        <mxPoint x="82" y="332" as="targetPoint"/>
                    </mxGeometry>
                </mxCell>
                <mxCell id="ylkIkgIqxPqcDmFFb2RJ-258" value="" style="endArrow=none;html=1;rounded=0;exitX=-0.013;exitY=0.417;exitDx=0;exitDy=0;exitPerimeter=0;fontColor=#000000;fontFamily=Times New Roman;fontSize=14;entryX=0.5;entryY=1;entryDx=0;entryDy=0;fillColor=none;strokeColor=#000000;fontStyle=1" parent="1" source="83" target="81" edge="1">
                    <mxGeometry width="50" height="50" relative="1" as="geometry">
                        <mxPoint x="28.819805153394555" y="400.78679656440363" as="sourcePoint"/>
                        <mxPoint x="42" y="292" as="targetPoint"/>
                    </mxGeometry>
                </mxCell>
                <mxCell id="ylkIkgIqxPqcDmFFb2RJ-260" value="" style="endArrow=none;html=1;rounded=0;entryX=0.5;entryY=1;entryDx=0;entryDy=0;fontColor=#000000;fontFamily=Times New Roman;fontSize=14;fillColor=none;strokeColor=#000000;fontStyle=1" parent="1" target="30" edge="1">
                    <mxGeometry width="50" height="50" relative="1" as="geometry">
                        <mxPoint x="337" y="610" as="sourcePoint"/>
                        <mxPoint x="432" y="576" as="targetPoint"/>
                    </mxGeometry>
                </mxCell>
                <mxCell id="ylkIkgIqxPqcDmFFb2RJ-262" value="" style="endArrow=none;html=1;rounded=0;entryX=0.5;entryY=1;entryDx=0;entryDy=0;fontColor=#000000;fontFamily=Times New Roman;fontSize=14;fillColor=none;strokeColor=#000000;fontStyle=1" parent="1" source="20" target="15" edge="1">
                    <mxGeometry width="50" height="50" relative="1" as="geometry">
                        <mxPoint x="666" y="644" as="sourcePoint"/>
                        <mxPoint x="716" y="594" as="targetPoint"/>
                    </mxGeometry>
                </mxCell>
                <mxCell id="ylkIkgIqxPqcDmFFb2RJ-264" value="" style="endArrow=none;html=1;rounded=0;exitX=0.636;exitY=0.003;exitDx=0;exitDy=0;exitPerimeter=0;entryX=0.5;entryY=1;entryDx=0;entryDy=0;fontColor=#000000;fontFamily=Times New Roman;fontSize=14;fillColor=none;strokeColor=#000000;fontStyle=1" parent="1" source="28" target="15" edge="1">
                    <mxGeometry width="50" height="50" relative="1" as="geometry">
                        <mxPoint x="645.4200000000001" y="722.1800000000001" as="sourcePoint"/>
                        <mxPoint x="689" y="566" as="targetPoint"/>
                    </mxGeometry>
                </mxCell>
                <mxCell id="ylkIkgIqxPqcDmFFb2RJ-265" value="" style="endArrow=none;html=1;rounded=0;exitX=1;exitY=0;exitDx=0;exitDy=0;entryX=0.5;entryY=1;entryDx=0;entryDy=0;fontColor=#000000;fontFamily=Times New Roman;fontSize=14;fillColor=none;strokeColor=#000000;fontStyle=1" parent="1" source="19" target="15" edge="1">
                    <mxGeometry width="50" height="50" relative="1" as="geometry">
                        <mxPoint x="620.4200000000001" y="712.1799999999998" as="sourcePoint"/>
                        <mxPoint x="687" y="591" as="targetPoint"/>
                    </mxGeometry>
                </mxCell>
                <mxCell id="ylkIkgIqxPqcDmFFb2RJ-266" value="" style="endArrow=none;html=1;rounded=0;exitX=0.387;exitY=0.021;exitDx=0;exitDy=0;entryX=0.5;entryY=1;entryDx=0;entryDy=0;fontColor=#000000;fontFamily=Times New Roman;fontSize=14;fillColor=none;strokeColor=#000000;fontStyle=1;exitPerimeter=0;" parent="1" source="18" target="15" edge="1">
                    <mxGeometry width="50" height="50" relative="1" as="geometry">
                        <mxPoint x="630.4200000000001" y="722.1799999999998" as="sourcePoint"/>
                        <mxPoint x="704" y="590" as="targetPoint"/>
                    </mxGeometry>
                </mxCell>
                <mxCell id="ylkIkgIqxPqcDmFFb2RJ-267" value="" style="endArrow=none;html=1;rounded=0;exitX=0;exitY=0;exitDx=0;exitDy=0;entryX=0.5;entryY=1;entryDx=0;entryDy=0;fontColor=#000000;fontFamily=Times New Roman;fontSize=14;fillColor=none;strokeColor=#000000;fontStyle=1" parent="1" source="21" target="15" edge="1">
                    <mxGeometry width="50" height="50" relative="1" as="geometry">
                        <mxPoint x="640.4200000000001" y="732.1799999999998" as="sourcePoint"/>
                        <mxPoint x="715" y="584" as="targetPoint"/>
                    </mxGeometry>
                </mxCell>
                <mxCell id="ylkIkgIqxPqcDmFFb2RJ-268" value="" style="endArrow=none;html=1;rounded=0;exitX=0.1;exitY=0.183;exitDx=0;exitDy=0;entryX=0.5;entryY=1;entryDx=0;entryDy=0;fontColor=#000000;fontFamily=Times New Roman;fontSize=14;fillColor=none;strokeColor=#000000;fontStyle=1;exitPerimeter=0;" parent="1" source="44" target="15" edge="1">
                    <mxGeometry width="50" height="50" relative="1" as="geometry">
                        <mxPoint x="650.4200000000001" y="742.1799999999998" as="sourcePoint"/>
                        <mxPoint x="747" y="586" as="targetPoint"/>
                    </mxGeometry>
                </mxCell>
                <mxCell id="ylkIkgIqxPqcDmFFb2RJ-269" value="" style="endArrow=none;html=1;rounded=0;exitX=1;exitY=0.5;exitDx=0;exitDy=0;entryX=0.102;entryY=0.847;entryDx=0;entryDy=0;entryPerimeter=0;fontColor=#000000;fontFamily=Times New Roman;fontSize=14;fillColor=none;strokeColor=#000000;fontStyle=1" parent="1" source="58" target="61" edge="1">
                    <mxGeometry width="50" height="50" relative="1" as="geometry">
                        <mxPoint x="1025.42" y="286.18" as="sourcePoint"/>
                        <mxPoint x="1102" y="169.00000000000017" as="targetPoint"/>
                    </mxGeometry>
                </mxCell>
                <mxCell id="ylkIkgIqxPqcDmFFb2RJ-272" value="" style="endArrow=none;html=1;rounded=0;exitX=1;exitY=0.5;exitDx=0;exitDy=0;fontColor=#000000;fontFamily=Times New Roman;fontSize=14;fillColor=none;strokeColor=#000000;fontStyle=1" parent="1" source="58" target="62" edge="1">
                    <mxGeometry width="50" height="50" relative="1" as="geometry">
                        <mxPoint x="1043" y="282" as="sourcePoint"/>
                        <mxPoint x="1119.58" y="164.82000000000016" as="targetPoint"/>
                    </mxGeometry>
                </mxCell>
                <mxCell id="ylkIkgIqxPqcDmFFb2RJ-273" value="" style="endArrow=none;html=1;rounded=0;exitX=1;exitY=0.5;exitDx=0;exitDy=0;entryX=0.001;entryY=0.432;entryDx=0;entryDy=0;entryPerimeter=0;fontColor=#000000;fontFamily=Times New Roman;fontSize=14;fillColor=none;strokeColor=#000000;fontStyle=1" parent="1" source="58" target="65" edge="1">
                    <mxGeometry width="50" height="50" relative="1" as="geometry">
                        <mxPoint x="1085" y="278.18" as="sourcePoint"/>
                        <mxPoint x="1161.58" y="161.00000000000017" as="targetPoint"/>
                    </mxGeometry>
                </mxCell>
                <mxCell id="ylkIkgIqxPqcDmFFb2RJ-274" value="" style="endArrow=none;html=1;rounded=0;exitX=1;exitY=0.5;exitDx=0;exitDy=0;entryX=0.031;entryY=0.357;entryDx=0;entryDy=0;entryPerimeter=0;fontColor=#000000;fontFamily=Times New Roman;fontSize=14;fillColor=none;strokeColor=#000000;fontStyle=1" parent="1" source="58" target="68" edge="1">
                    <mxGeometry width="50" height="50" relative="1" as="geometry">
                        <mxPoint x="1052" y="292" as="sourcePoint"/>
                        <mxPoint x="1128.58" y="174.82000000000016" as="targetPoint"/>
                    </mxGeometry>
                </mxCell>
                <mxCell id="ylkIkgIqxPqcDmFFb2RJ-275" value="" style="endArrow=none;html=1;rounded=0;exitX=1;exitY=0.5;exitDx=0;exitDy=0;entryX=0.021;entryY=0.342;entryDx=0;entryDy=0;entryPerimeter=0;fontColor=#000000;fontFamily=Times New Roman;fontSize=14;fillColor=none;strokeColor=#000000;fontStyle=1" parent="1" source="58" target="67" edge="1">
                    <mxGeometry width="50" height="50" relative="1" as="geometry">
                        <mxPoint x="1044" y="359.18" as="sourcePoint"/>
                        <mxPoint x="1120.58" y="242.00000000000017" as="targetPoint"/>
                    </mxGeometry>
                </mxCell>
                <mxCell id="ylkIkgIqxPqcDmFFb2RJ-277" value="" style="endArrow=none;html=1;rounded=0;exitX=1;exitY=0.5;exitDx=0;exitDy=0;entryX=0.051;entryY=0.271;entryDx=0;entryDy=0;entryPerimeter=0;fontColor=#000000;fontFamily=Times New Roman;fontSize=14;fillColor=none;strokeColor=#000000;fontStyle=1" parent="1" source="58" target="63" edge="1">
                    <mxGeometry width="50" height="50" relative="1" as="geometry">
                        <mxPoint x="1032" y="299" as="sourcePoint"/>
                        <mxPoint x="1108.58" y="181.82000000000016" as="targetPoint"/>
                    </mxGeometry>
                </mxCell>
                <mxCell id="ylkIkgIqxPqcDmFFb2RJ-278" value="" style="endArrow=none;html=1;rounded=0;exitX=1;exitY=0.5;exitDx=0;exitDy=0;entryX=0.288;entryY=0.041;entryDx=0;entryDy=0;entryPerimeter=0;fontColor=#000000;fontFamily=Times New Roman;fontSize=14;fillColor=none;strokeColor=#000000;fontStyle=1" parent="1" source="58" target="69" edge="1">
                    <mxGeometry width="50" height="50" relative="1" as="geometry">
                        <mxPoint x="1070" y="300" as="sourcePoint"/>
                        <mxPoint x="1146.58" y="182.82000000000016" as="targetPoint"/>
                    </mxGeometry>
                </mxCell>
                <mxCell id="ylkIkgIqxPqcDmFFb2RJ-280" value="" style="endArrow=none;html=1;rounded=0;exitX=1;exitY=0.5;exitDx=0;exitDy=0;fontColor=#000000;fontFamily=Times New Roman;fontSize=14;fillColor=none;strokeColor=#000000;fontStyle=1" parent="1" source="148" target="153" edge="1">
                    <mxGeometry width="50" height="50" relative="1" as="geometry">
                        <mxPoint x="1133" y="502" as="sourcePoint"/>
                        <mxPoint x="1183" y="452" as="targetPoint"/>
                    </mxGeometry>
                </mxCell>
                <mxCell id="ylkIkgIqxPqcDmFFb2RJ-283" value="" style="endArrow=none;html=1;rounded=0;exitX=1;exitY=0.5;exitDx=0;exitDy=0;entryX=0;entryY=0;entryDx=0;entryDy=0;fontColor=#000000;fontFamily=Times New Roman;fontSize=14;fillColor=none;strokeColor=#000000;fontStyle=1" parent="1" source="148" target="159" edge="1">
                    <mxGeometry width="50" height="50" relative="1" as="geometry">
                        <mxPoint x="1173" y="529" as="sourcePoint"/>
                        <mxPoint x="1249.58" y="411.82000000000016" as="targetPoint"/>
                    </mxGeometry>
                </mxCell>
                <mxCell id="ylkIkgIqxPqcDmFFb2RJ-284" value="" style="endArrow=none;html=1;rounded=0;exitX=1;exitY=0.5;exitDx=0;exitDy=0;entryX=0.066;entryY=0.197;entryDx=0;entryDy=0;entryPerimeter=0;fontColor=#000000;fontFamily=Times New Roman;fontSize=14;fillColor=none;strokeColor=#000000;fontStyle=1" parent="1" source="58" target="70" edge="1">
                    <mxGeometry width="50" height="50" relative="1" as="geometry">
                        <mxPoint x="1019" y="278" as="sourcePoint"/>
                        <mxPoint x="1095.58" y="160.82000000000016" as="targetPoint"/>
                    </mxGeometry>
                </mxCell>
                <mxCell id="ylkIkgIqxPqcDmFFb2RJ-285" value="" style="endArrow=none;html=1;rounded=0;exitX=1;exitY=0.5;exitDx=0;exitDy=0;entryX=0.3;entryY=0.983;entryDx=0;entryDy=0;entryPerimeter=0;fontColor=#000000;fontFamily=Times New Roman;fontSize=14;fillColor=none;strokeColor=#000000;fontStyle=1" parent="1" source="115" target="117" edge="1">
                    <mxGeometry width="50" height="50" relative="1" as="geometry">
                        <mxPoint x="1190" y="767" as="sourcePoint"/>
                        <mxPoint x="1266.58" y="649.8200000000002" as="targetPoint"/>
                    </mxGeometry>
                </mxCell>
                <mxCell id="ylkIkgIqxPqcDmFFb2RJ-287" value="" style="endArrow=none;html=1;rounded=0;exitX=1;exitY=0.5;exitDx=0;exitDy=0;entryX=0.047;entryY=0.725;entryDx=0;entryDy=0;entryPerimeter=0;fontColor=#000000;fontFamily=Times New Roman;fontSize=14;fillColor=none;strokeColor=#000000;fontStyle=1" parent="1" source="115" target="119" edge="1">
                    <mxGeometry width="50" height="50" relative="1" as="geometry">
                        <mxPoint x="1160" y="812" as="sourcePoint"/>
                        <mxPoint x="1236.58" y="694.8200000000002" as="targetPoint"/>
                    </mxGeometry>
                </mxCell>
                <mxCell id="ylkIkgIqxPqcDmFFb2RJ-288" value="" style="endArrow=none;html=1;rounded=0;entryX=0;entryY=0.5;entryDx=0;entryDy=0;exitX=1;exitY=0.5;exitDx=0;exitDy=0;fontColor=#000000;fontFamily=Times New Roman;fontSize=14;fillColor=none;strokeColor=#000000;fontStyle=1" parent="1" source="115" target="118" edge="1">
                    <mxGeometry width="50" height="50" relative="1" as="geometry">
                        <mxPoint x="1117" y="803" as="sourcePoint"/>
                        <mxPoint x="1350.58" y="679.8200000000002" as="targetPoint"/>
                    </mxGeometry>
                </mxCell>
                <mxCell id="ylkIkgIqxPqcDmFFb2RJ-289" value="" style="endArrow=none;html=1;rounded=0;exitX=1;exitY=0.5;exitDx=0;exitDy=0;entryX=0.066;entryY=0.208;entryDx=0;entryDy=0;entryPerimeter=0;fontColor=#000000;fontFamily=Times New Roman;fontSize=14;fillColor=none;strokeColor=#000000;fontStyle=1" parent="1" source="115" target="122" edge="1">
                    <mxGeometry width="50" height="50" relative="1" as="geometry">
                        <mxPoint x="1192" y="824" as="sourcePoint"/>
                        <mxPoint x="1268.58" y="706.8200000000002" as="targetPoint"/>
                    </mxGeometry>
                </mxCell>
                <mxCell id="ylkIkgIqxPqcDmFFb2RJ-292" value="" style="endArrow=none;html=1;rounded=0;exitX=0.5;exitY=0;exitDx=0;exitDy=0;entryX=0.5;entryY=1;entryDx=0;entryDy=0;fontColor=#000000;fontFamily=Times New Roman;fontSize=14;fillColor=none;strokeColor=#000000;fontStyle=1" parent="1" source="139" target="142" edge="1">
                    <mxGeometry width="50" height="50" relative="1" as="geometry">
                        <mxPoint x="1155" y="1054" as="sourcePoint"/>
                        <mxPoint x="1231.58" y="936.8200000000002" as="targetPoint"/>
                    </mxGeometry>
                </mxCell>
                <mxCell id="ylkIkgIqxPqcDmFFb2RJ-293" value="" style="endArrow=none;html=1;rounded=0;exitX=0.5;exitY=0;exitDx=0;exitDy=0;entryX=0;entryY=1;entryDx=0;entryDy=0;fontColor=#000000;fontFamily=Times New Roman;fontSize=14;fillColor=none;strokeColor=#000000;fontStyle=1" parent="1" source="139" target="141" edge="1">
                    <mxGeometry width="50" height="50" relative="1" as="geometry">
                        <mxPoint x="1176" y="1107" as="sourcePoint"/>
                        <mxPoint x="1252.58" y="989.8200000000002" as="targetPoint"/>
                    </mxGeometry>
                </mxCell>
                <mxCell id="ylkIkgIqxPqcDmFFb2RJ-294" value="" style="endArrow=none;html=1;rounded=0;entryX=0.724;entryY=0.983;entryDx=0;entryDy=0;fontColor=#000000;fontFamily=Times New Roman;fontSize=14;exitX=0.5;exitY=0;exitDx=0;exitDy=0;entryPerimeter=0;fillColor=none;strokeColor=#000000;fontStyle=1" parent="1" source="42" target="48" edge="1">
                    <mxGeometry width="50" height="50" relative="1" as="geometry">
                        <mxPoint x="630" y="1330" as="sourcePoint"/>
                        <mxPoint x="1318.58" y="1250.8200000000002" as="targetPoint"/>
                    </mxGeometry>
                </mxCell>
                <mxCell id="ylkIkgIqxPqcDmFFb2RJ-295" value="" style="endArrow=none;html=1;rounded=0;entryX=1;entryY=1;entryDx=0;entryDy=0;fontColor=#000000;fontFamily=Times New Roman;fontSize=14;exitX=0.5;exitY=0;exitDx=0;exitDy=0;fillColor=none;strokeColor=#000000;fontStyle=1" parent="1" source="42" target="47" edge="1">
                    <mxGeometry width="50" height="50" relative="1" as="geometry">
                        <mxPoint x="490" y="1180" as="sourcePoint"/>
                        <mxPoint x="1379.58" y="1211.8200000000002" as="targetPoint"/>
                    </mxGeometry>
                </mxCell>
                <mxCell id="ylkIkgIqxPqcDmFFb2RJ-296" value="" style="endArrow=none;html=1;rounded=0;entryX=0;entryY=0.5;entryDx=0;entryDy=0;fontColor=#000000;fontFamily=Times New Roman;fontSize=14;exitX=0.5;exitY=0;exitDx=0;exitDy=0;fillColor=none;strokeColor=#000000;fontStyle=1" parent="1" source="42" target="46" edge="1">
                    <mxGeometry width="50" height="50" relative="1" as="geometry">
                        <mxPoint x="600" y="1380" as="sourcePoint"/>
                        <mxPoint x="1341.58" y="1273.8200000000002" as="targetPoint"/>
                    </mxGeometry>
                </mxCell>
                <mxCell id="ylkIkgIqxPqcDmFFb2RJ-297" value="" style="endArrow=none;html=1;rounded=0;entryX=0;entryY=1;entryDx=0;entryDy=0;fontColor=#000000;fontFamily=Times New Roman;fontSize=14;exitX=0.5;exitY=0;exitDx=0;exitDy=0;fillColor=none;strokeColor=#000000;fontStyle=1" parent="1" source="42" target="50" edge="1">
                    <mxGeometry width="50" height="50" relative="1" as="geometry">
                        <mxPoint x="600" y="1354" as="sourcePoint"/>
                        <mxPoint x="1366.58" y="1277.8200000000002" as="targetPoint"/>
                    </mxGeometry>
                </mxCell>
                <mxCell id="ylkIkgIqxPqcDmFFb2RJ-298" value="" style="endArrow=none;html=1;rounded=0;entryX=0.5;entryY=1;entryDx=0;entryDy=0;fontColor=#000000;fontFamily=Times New Roman;fontSize=14;exitX=0.5;exitY=0;exitDx=0;exitDy=0;fillColor=none;strokeColor=#000000;fontStyle=1" parent="1" source="42" target="52" edge="1">
                    <mxGeometry width="50" height="50" relative="1" as="geometry">
                        <mxPoint x="590" y="1400" as="sourcePoint"/>
                        <mxPoint x="1253.58" y="1283.8200000000002" as="targetPoint"/>
                    </mxGeometry>
                </mxCell>
                <mxCell id="ylkIkgIqxPqcDmFFb2RJ-299" value="" style="endArrow=none;html=1;rounded=0;exitX=1;exitY=0;exitDx=0;exitDy=0;entryX=0.5;entryY=1;entryDx=0;entryDy=0;fontColor=#000000;fontFamily=Times New Roman;fontSize=14;fillColor=none;strokeColor=#000000;fontStyle=1" parent="1" source="29" target="30" edge="1">
                    <mxGeometry width="50" height="50" relative="1" as="geometry">
                        <mxPoint x="153" y="684.1800000000001" as="sourcePoint"/>
                        <mxPoint x="229.57999999999993" y="567.0000000000002" as="targetPoint"/>
                    </mxGeometry>
                </mxCell>
                <mxCell id="ylkIkgIqxPqcDmFFb2RJ-300" value="" style="endArrow=none;html=1;rounded=0;exitX=0.5;exitY=0;exitDx=0;exitDy=0;entryX=0.895;entryY=0.802;entryDx=0;entryDy=0;entryPerimeter=0;fontColor=#000000;fontFamily=Times New Roman;fontSize=14;fillColor=none;strokeColor=#000000;fontStyle=1" parent="1" source="99" target="102" edge="1">
                    <mxGeometry width="50" height="50" relative="1" as="geometry">
                        <mxPoint x="712" y="-38" as="sourcePoint"/>
                        <mxPoint x="713" y="-92" as="targetPoint"/>
                    </mxGeometry>
                </mxCell>
                <mxCell id="ylkIkgIqxPqcDmFFb2RJ-303" value="" style="endArrow=none;html=1;rounded=0;entryX=0.008;entryY=0.599;entryDx=0;entryDy=0;entryPerimeter=0;fontColor=#000000;exitX=0.5;exitY=0;exitDx=0;exitDy=0;fontFamily=Times New Roman;fontSize=14;fillColor=none;strokeColor=#000000;fontStyle=1" parent="1" source="99" target="104" edge="1">
                    <mxGeometry width="50" height="50" relative="1" as="geometry">
                        <mxPoint x="780" y="10" as="sourcePoint"/>
                        <mxPoint x="921.9999999999999" y="-145.99999999999983" as="targetPoint"/>
                    </mxGeometry>
                </mxCell>
                <mxCell id="ylkIkgIqxPqcDmFFb2RJ-305" value="" style="endArrow=none;html=1;rounded=0;exitX=0.5;exitY=0;exitDx=0;exitDy=0;entryX=1;entryY=0.5;entryDx=0;entryDy=0;fontColor=#000000;fontFamily=Times New Roman;fontSize=14;fillColor=none;strokeColor=#000000;fontStyle=1" parent="1" source="99" target="107" edge="1">
                    <mxGeometry width="50" height="50" relative="1" as="geometry">
                        <mxPoint x="646" y="-32" as="sourcePoint"/>
                        <mxPoint x="722.5799999999999" y="-149.17999999999984" as="targetPoint"/>
                    </mxGeometry>
                </mxCell>
                <mxCell id="ylkIkgIqxPqcDmFFb2RJ-306" value="" style="endArrow=none;html=1;rounded=0;exitX=0;exitY=0;exitDx=0;exitDy=0;entryX=0.5;entryY=1;entryDx=0;entryDy=0;fontColor=#000000;fontFamily=Times New Roman;fontSize=14;fillColor=none;strokeColor=#000000;fontStyle=1" parent="1" source="35" target="30" edge="1">
                    <mxGeometry width="50" height="50" relative="1" as="geometry">
                        <mxPoint x="380" y="604" as="sourcePoint"/>
                        <mxPoint x="456.5799999999999" y="486.82000000000016" as="targetPoint"/>
                    </mxGeometry>
                </mxCell>
                <mxCell id="wyFP0IQs_SlAswJV2CrF-227" value="" style="endArrow=none;html=1;rounded=0;exitX=1;exitY=0.5;exitDx=0;exitDy=0;entryX=0;entryY=0.5;entryDx=0;entryDy=0;fontColor=#000000;fontFamily=Times New Roman;fontSize=14;fillColor=none;strokeColor=#000000;fontStyle=1" parent="1" source="30" target="32" edge="1">
                    <mxGeometry width="50" height="50" relative="1" as="geometry">
                        <mxPoint x="417" y="553" as="sourcePoint"/>
                        <mxPoint x="467" y="503" as="targetPoint"/>
                    </mxGeometry>
                </mxCell>
                <mxCell id="wyFP0IQs_SlAswJV2CrF-229" value="" style="endArrow=none;html=1;rounded=0;exitX=1;exitY=0.5;exitDx=0;exitDy=0;fontColor=#000000;fontFamily=Times New Roman;fontSize=14;fillColor=none;strokeColor=#000000;fontStyle=1" parent="1" source="32" edge="1">
                    <mxGeometry width="50" height="50" relative="1" as="geometry">
                        <mxPoint x="573" y="559" as="sourcePoint"/>
                        <mxPoint x="631" y="525" as="targetPoint"/>
                    </mxGeometry>
                </mxCell>
                <mxCell id="wyFP0IQs_SlAswJV2CrF-230" value="" style="endArrow=none;html=1;rounded=0;exitX=1.012;exitY=0.434;exitDx=0;exitDy=0;exitPerimeter=0;entryX=0;entryY=0.525;entryDx=0;entryDy=0;entryPerimeter=0;fontColor=#000000;fontFamily=Times New Roman;fontSize=14;fillColor=none;strokeColor=#000000;fontStyle=1" parent="1" source="15" target="40" edge="1">
                    <mxGeometry width="50" height="50" relative="1" as="geometry">
                        <mxPoint x="766" y="562" as="sourcePoint"/>
                        <mxPoint x="808" y="527" as="targetPoint"/>
                    </mxGeometry>
                </mxCell>
                <mxCell id="wyFP0IQs_SlAswJV2CrF-232" value="" style="endArrow=none;html=1;rounded=0;entryX=0.5;entryY=1;entryDx=0;entryDy=0;exitX=0.5;exitY=0;exitDx=0;exitDy=0;fontColor=#000000;fontFamily=Times New Roman;fontSize=14;fillColor=none;strokeColor=#000000;fontStyle=1" parent="1" source="15" target="13" edge="1">
                    <mxGeometry width="50" height="50" relative="1" as="geometry">
                        <mxPoint x="666" y="490" as="sourcePoint"/>
                        <mxPoint x="716" y="440" as="targetPoint"/>
                    </mxGeometry>
                </mxCell>
                <mxCell id="wyFP0IQs_SlAswJV2CrF-234" value="" style="endArrow=none;html=1;rounded=0;exitX=1;exitY=0.5;exitDx=0;exitDy=0;entryX=0;entryY=0.5;entryDx=0;entryDy=0;fontColor=#000000;fontFamily=Times New Roman;fontSize=14;fillColor=none;strokeColor=#000000;fontStyle=1" parent="1" source="98" target="58" edge="1">
                    <mxGeometry width="50" height="50" relative="1" as="geometry">
                        <mxPoint x="812" y="253" as="sourcePoint"/>
                        <mxPoint x="862" y="203" as="targetPoint"/>
                    </mxGeometry>
                </mxCell>
                <mxCell id="wyFP0IQs_SlAswJV2CrF-235" value="" style="endArrow=none;html=1;rounded=0;entryX=0.5;entryY=1;entryDx=0;entryDy=0;fontColor=#000000;fontFamily=Times New Roman;fontSize=14;fillColor=none;strokeColor=#000000;fontStyle=1" parent="1" source="98" target="99" edge="1">
                    <mxGeometry width="50" height="50" relative="1" as="geometry">
                        <mxPoint x="738" y="138" as="sourcePoint"/>
                        <mxPoint x="788" y="88" as="targetPoint"/>
                    </mxGeometry>
                </mxCell>
                <mxCell id="wyFP0IQs_SlAswJV2CrF-237" value="" style="endArrow=none;html=1;rounded=0;exitX=0.5;exitY=1;exitDx=0;exitDy=0;entryX=0.5;entryY=0;entryDx=0;entryDy=0;fontColor=#000000;fontFamily=Times New Roman;fontSize=14;fillColor=none;strokeColor=#000000;fontStyle=1" parent="1" source="57" target="148" edge="1">
                    <mxGeometry width="50" height="50" relative="1" as="geometry">
                        <mxPoint x="979" y="446" as="sourcePoint"/>
                        <mxPoint x="1029" y="396" as="targetPoint"/>
                    </mxGeometry>
                </mxCell>
                <mxCell id="wyFP0IQs_SlAswJV2CrF-238" value="" style="endArrow=none;html=1;rounded=0;exitX=0.5;exitY=0;exitDx=0;exitDy=0;entryX=0.5;entryY=1;entryDx=0;entryDy=0;fontColor=#000000;fontFamily=Times New Roman;fontSize=14;fillColor=none;strokeColor=#000000;fontStyle=1" parent="1" source="150" target="148" edge="1">
                    <mxGeometry width="50" height="50" relative="1" as="geometry">
                        <mxPoint x="935" y="627" as="sourcePoint"/>
                        <mxPoint x="969" y="575" as="targetPoint"/>
                    </mxGeometry>
                </mxCell>
                <mxCell id="wyFP0IQs_SlAswJV2CrF-239" value="" style="endArrow=none;html=1;rounded=0;exitX=0.5;exitY=0;exitDx=0;exitDy=0;entryX=0.5;entryY=1;entryDx=0;entryDy=0;entryPerimeter=0;fontColor=#000000;fontFamily=Times New Roman;fontSize=14;fillColor=none;strokeColor=#000000;fontStyle=1" parent="1" source="115" target="150" edge="1">
                    <mxGeometry width="50" height="50" relative="1" as="geometry">
                        <mxPoint x="939" y="768" as="sourcePoint"/>
                        <mxPoint x="974" y="703" as="targetPoint"/>
                    </mxGeometry>
                </mxCell>
                <mxCell id="wyFP0IQs_SlAswJV2CrF-241" value="" style="endArrow=none;html=1;rounded=0;entryX=0;entryY=0.5;entryDx=0;entryDy=0;exitX=1;exitY=0.5;exitDx=0;exitDy=0;fontColor=#000000;fontFamily=Times New Roman;fontSize=14;fillColor=none;strokeColor=#000000;fontStyle=1" parent="1" source="139" target="134" edge="1">
                    <mxGeometry width="50" height="50" relative="1" as="geometry">
                        <mxPoint x="943" y="1080" as="sourcePoint"/>
                        <mxPoint x="993" y="1030" as="targetPoint"/>
                    </mxGeometry>
                </mxCell>
                <mxCell id="wyFP0IQs_SlAswJV2CrF-242" value="" style="endArrow=classic;html=1;rounded=0;exitX=1;exitY=0.5;exitDx=0;exitDy=0;entryX=0;entryY=0.5;entryDx=0;entryDy=0;fontColor=#000000;fontFamily=Times New Roman;fontSize=14;fillColor=none;strokeColor=#000000;fontStyle=1" parent="1" source="79" target="2" edge="1">
                    <mxGeometry width="50" height="50" relative="1" as="geometry">
                        <mxPoint x="131" y="281" as="sourcePoint"/>
                        <mxPoint x="181" y="231" as="targetPoint"/>
                    </mxGeometry>
                </mxCell>
                <mxCell id="gr4sme4f1MJXMIDpCckx-227" value="quantity" style="ellipse;whiteSpace=wrap;html=1;fontFamily=Times New Roman;fontSize=14;fillColor=none;strokeColor=#000000;fontColor=#000000;fontStyle=1" parent="1" vertex="1">
                    <mxGeometry x="-92" y="425" width="93" height="63" as="geometry"/>
                </mxCell>
                <mxCell id="gr4sme4f1MJXMIDpCckx-229" value="" style="endArrow=none;html=1;rounded=0;exitX=0.593;exitY=0.014;exitDx=0;exitDy=0;entryX=0.5;entryY=1;entryDx=0;entryDy=0;exitPerimeter=0;fontColor=#000000;fontFamily=Times New Roman;fontSize=14;fillColor=none;strokeColor=#000000;fontStyle=1" parent="1" source="gr4sme4f1MJXMIDpCckx-227" target="81" edge="1">
                    <mxGeometry width="50" height="50" relative="1" as="geometry">
                        <mxPoint x="-63" y="287" as="sourcePoint"/>
                        <mxPoint x="-13" y="237" as="targetPoint"/>
                    </mxGeometry>
                </mxCell>
                <mxCell id="233" value="city" style="ellipse;whiteSpace=wrap;html=1;fontFamily=Times New Roman;fontSize=14;fillColor=none;strokeColor=#000000;fontColor=#000000;fontStyle=1" parent="1" vertex="1">
                    <mxGeometry x="727" y="-59" width="90" height="60" as="geometry"/>
                </mxCell>
                <mxCell id="234" value="" style="endArrow=none;html=1;fontFamily=Times New Roman;fontSize=14;fontColor=#000000;entryX=0.5;entryY=1;entryDx=0;entryDy=0;exitX=0.5;exitY=0;exitDx=0;exitDy=0;fillColor=none;strokeColor=#000000;fontStyle=1" parent="1" source="99" target="233" edge="1">
                    <mxGeometry width="50" height="50" relative="1" as="geometry">
                        <mxPoint x="1000" y="20" as="sourcePoint"/>
                        <mxPoint x="1050" y="-30" as="targetPoint"/>
                    </mxGeometry>
                </mxCell>
                <mxCell id="235" value="postal code" style="ellipse;whiteSpace=wrap;html=1;fontFamily=Times New Roman;fontSize=14;fillColor=none;strokeColor=#000000;fontColor=#000000;fontStyle=1" parent="1" vertex="1">
                    <mxGeometry x="824" y="-46" width="90" height="60" as="geometry"/>
                </mxCell>
                <mxCell id="236" value="" style="endArrow=none;html=1;fontFamily=Times New Roman;fontSize=14;fontColor=#000000;entryX=0.221;entryY=0.924;entryDx=0;entryDy=0;exitX=0.5;exitY=0;exitDx=0;exitDy=0;fillColor=none;strokeColor=#000000;fontStyle=1;entryPerimeter=0;" parent="1" source="99" target="235" edge="1">
                    <mxGeometry width="50" height="50" relative="1" as="geometry">
                        <mxPoint x="1000" y="30" as="sourcePoint"/>
                        <mxPoint x="1050" y="-20" as="targetPoint"/>
                    </mxGeometry>
                </mxCell>
                <mxCell id="237" value="user name" style="ellipse;whiteSpace=wrap;html=1;fontFamily=Times New Roman;fontSize=14;fillColor=none;strokeColor=#000000;fontColor=#000000;fontStyle=1" parent="1" vertex="1">
                    <mxGeometry x="1266" y="282" width="90" height="60" as="geometry"/>
                </mxCell>
                <mxCell id="238" value="" style="endArrow=none;html=1;fontFamily=Times New Roman;fontSize=14;fontColor=#000000;entryX=0;entryY=0.333;entryDx=0;entryDy=0;entryPerimeter=0;exitX=1;exitY=0.5;exitDx=0;exitDy=0;fillColor=none;strokeColor=#000000;fontStyle=1" parent="1" source="58" target="237" edge="1">
                    <mxGeometry width="50" height="50" relative="1" as="geometry">
                        <mxPoint x="1000" y="330" as="sourcePoint"/>
                        <mxPoint x="1050" y="280" as="targetPoint"/>
                    </mxGeometry>
                </mxCell>
                <mxCell id="241" value="address" style="ellipse;whiteSpace=wrap;html=1;fontFamily=Times New Roman;fontSize=14;fillColor=none;strokeColor=#000000;fontColor=#000000;fontStyle=1" parent="1" vertex="1">
                    <mxGeometry x="632" y="883" width="90" height="60" as="geometry"/>
                </mxCell>
                <mxCell id="242" value="city" style="ellipse;whiteSpace=wrap;html=1;fontFamily=Times New Roman;fontSize=14;fillColor=none;strokeColor=#000000;fontColor=#000000;fontStyle=1" parent="1" vertex="1">
                    <mxGeometry x="587" y="950" width="90" height="60" as="geometry"/>
                </mxCell>
                <mxCell id="245" value="" style="endArrow=none;html=1;fontFamily=Times New Roman;fontSize=14;fontColor=#000000;entryX=1;entryY=1;entryDx=0;entryDy=0;exitX=0.5;exitY=0;exitDx=0;exitDy=0;fillColor=none;strokeColor=#000000;fontStyle=1" parent="1" source="139" target="241" edge="1">
                    <mxGeometry width="50" height="50" relative="1" as="geometry">
                        <mxPoint x="780" y="1020" as="sourcePoint"/>
                        <mxPoint x="830" y="970" as="targetPoint"/>
                    </mxGeometry>
                </mxCell>
                <mxCell id="246" value="" style="endArrow=none;html=1;fontFamily=Times New Roman;fontSize=14;fontColor=#000000;entryX=1;entryY=0.5;entryDx=0;entryDy=0;exitX=0.5;exitY=0;exitDx=0;exitDy=0;fillColor=none;strokeColor=#000000;fontStyle=1" parent="1" source="139" target="242" edge="1">
                    <mxGeometry width="50" height="50" relative="1" as="geometry">
                        <mxPoint x="780" y="1020" as="sourcePoint"/>
                        <mxPoint x="830" y="970" as="targetPoint"/>
                    </mxGeometry>
                </mxCell>
                <mxCell id="251" value="" style="endArrow=none;html=1;entryX=0;entryY=0.5;entryDx=0;entryDy=0;exitX=1;exitY=0.5;exitDx=0;exitDy=0;strokeColor=#000000;" parent="1" source="81" target="79" edge="1">
                    <mxGeometry width="50" height="50" relative="1" as="geometry">
                        <mxPoint x="519" y="475" as="sourcePoint"/>
                        <mxPoint x="569" y="425" as="targetPoint"/>
                    </mxGeometry>
                </mxCell>
                <mxCell id="252" value="" style="endArrow=none;html=1;strokeColor=#000000;entryX=0.5;entryY=1;entryDx=0;entryDy=0;exitX=1;exitY=0;exitDx=0;exitDy=0;" parent="1" source="3" target="2" edge="1">
                    <mxGeometry width="50" height="50" relative="1" as="geometry">
                        <mxPoint x="368" y="475" as="sourcePoint"/>
                        <mxPoint x="418" y="425" as="targetPoint"/>
                    </mxGeometry>
                </mxCell>
                <mxCell id="253" value="" style="endArrow=none;html=1;strokeColor=#000000;entryX=0.5;entryY=1;entryDx=0;entryDy=0;exitX=0.5;exitY=0;exitDx=0;exitDy=0;" parent="1" source="4" target="2" edge="1">
                    <mxGeometry width="50" height="50" relative="1" as="geometry">
                        <mxPoint x="427" y="327" as="sourcePoint"/>
                        <mxPoint x="507" y="257" as="targetPoint"/>
                    </mxGeometry>
                </mxCell>
                <mxCell id="254" value="" style="endArrow=none;html=1;strokeColor=#000000;entryX=0.5;entryY=1;entryDx=0;entryDy=0;exitX=0.5;exitY=0;exitDx=0;exitDy=0;" parent="1" source="5" target="2" edge="1">
                    <mxGeometry width="50" height="50" relative="1" as="geometry">
                        <mxPoint x="390" y="347" as="sourcePoint"/>
                        <mxPoint x="470" y="277" as="targetPoint"/>
                    </mxGeometry>
                </mxCell>
                <mxCell id="257" value="" style="endArrow=none;html=1;strokeColor=#000000;entryX=0;entryY=0;entryDx=0;entryDy=0;exitX=0.5;exitY=1;exitDx=0;exitDy=0;" parent="1" source="2" target="6" edge="1">
                    <mxGeometry width="50" height="50" relative="1" as="geometry">
                        <mxPoint x="367" y="476" as="sourcePoint"/>
                        <mxPoint x="417" y="426" as="targetPoint"/>
                    </mxGeometry>
                </mxCell>
                <mxCell id="260" value="" style="endArrow=none;html=1;rounded=0;strokeColor=#000000;entryX=0;entryY=0.5;entryDx=0;entryDy=0;exitX=1;exitY=0.5;exitDx=0;exitDy=0;" parent="1" source="40" target="148" edge="1">
                    <mxGeometry width="50" height="50" relative="1" as="geometry">
                        <mxPoint x="377" y="625" as="sourcePoint"/>
                        <mxPoint x="427" y="575" as="targetPoint"/>
                    </mxGeometry>
                </mxCell>
                <mxCell id="261" value="&lt;font color=&quot;#000000&quot; face=&quot;Times New Roman&quot; size=&quot;1&quot;&gt;&lt;b style=&quot;font-size: 14px&quot;&gt;DELIVERY_BOY&lt;/b&gt;&lt;/font&gt;" style="rounded=0;whiteSpace=wrap;html=1;fillColor=none;strokeColor=#000000;" parent="1" vertex="1">
                    <mxGeometry x="192" y="96" width="120" height="60" as="geometry"/>
                </mxCell>
                <mxCell id="263" value="&lt;font face=&quot;Times New Roman&quot;&gt;&lt;span style=&quot;font-size: 14px&quot;&gt;&lt;b&gt;MANEGES&lt;/b&gt;&lt;/span&gt;&lt;/font&gt;" style="rhombus;whiteSpace=wrap;html=1;fontColor=#000000;strokeColor=#000000;fillColor=none;" parent="1" vertex="1">
                    <mxGeometry x="392" y="86" width="80" height="80" as="geometry"/>
                </mxCell>
                <mxCell id="265" value="" style="endArrow=none;html=1;fontColor=#000000;strokeColor=#000000;entryX=0;entryY=0.5;entryDx=0;entryDy=0;exitX=1;exitY=0.5;exitDx=0;exitDy=0;" parent="1" source="261" target="263" edge="1">
                    <mxGeometry width="50" height="50" relative="1" as="geometry">
                        <mxPoint x="-11" y="352" as="sourcePoint"/>
                        <mxPoint x="39" y="302" as="targetPoint"/>
                    </mxGeometry>
                </mxCell>
                <mxCell id="266" value="db_id" style="ellipse;whiteSpace=wrap;html=1;fontFamily=Times New Roman;fontSize=14;fillColor=none;strokeColor=#000000;fontColor=#000000;fontStyle=1" parent="1" vertex="1">
                    <mxGeometry x="247" y="-31" width="90" height="60" as="geometry"/>
                </mxCell>
                <mxCell id="267" value="Address_2" style="ellipse;whiteSpace=wrap;html=1;fontFamily=Times New Roman;fontSize=14;fillColor=none;strokeColor=#000000;fontColor=#000000;fontStyle=1" parent="1" vertex="1">
                    <mxGeometry x="78" y="55" width="90" height="60" as="geometry"/>
                </mxCell>
                <mxCell id="268" value="Address_1" style="ellipse;whiteSpace=wrap;html=1;fontFamily=Times New Roman;fontSize=14;fillColor=none;strokeColor=#000000;fontColor=#000000;fontStyle=1" parent="1" vertex="1">
                    <mxGeometry x="162" y="-59" width="90" height="60" as="geometry"/>
                </mxCell>
                <mxCell id="270" value="Password" style="ellipse;whiteSpace=wrap;html=1;fontFamily=Times New Roman;fontSize=14;fillColor=none;strokeColor=#000000;fontColor=#000000;fontStyle=1" parent="1" vertex="1">
                    <mxGeometry x="334" y="20" width="90" height="60" as="geometry"/>
                </mxCell>
                <mxCell id="271" value="" style="endArrow=none;html=1;fontColor=#000000;strokeColor=#000000;exitX=0.5;exitY=1;exitDx=0;exitDy=0;" parent="1" source="266" edge="1">
                    <mxGeometry width="50" height="50" relative="1" as="geometry">
                        <mxPoint x="54" y="496" as="sourcePoint"/>
                        <mxPoint x="251" y="96" as="targetPoint"/>
                    </mxGeometry>
                </mxCell>
                <mxCell id="272" value="" style="endArrow=none;html=1;fontColor=#000000;strokeColor=#000000;entryX=0.49;entryY=0.001;entryDx=0;entryDy=0;exitX=1;exitY=0.5;exitDx=0;exitDy=0;entryPerimeter=0;" parent="1" source="267" target="261" edge="1">
                    <mxGeometry width="50" height="50" relative="1" as="geometry">
                        <mxPoint x="-287" y="540" as="sourcePoint"/>
                        <mxPoint x="-332.15999999999985" y="428.8800000000001" as="targetPoint"/>
                    </mxGeometry>
                </mxCell>
                <mxCell id="273" value="" style="endArrow=none;html=1;fontColor=#000000;strokeColor=#000000;exitX=0.687;exitY=0.968;exitDx=0;exitDy=0;exitPerimeter=0;" parent="1" source="268" edge="1">
                    <mxGeometry width="50" height="50" relative="1" as="geometry">
                        <mxPoint x="-287" y="578" as="sourcePoint"/>
                        <mxPoint x="251" y="97" as="targetPoint"/>
                    </mxGeometry>
                </mxCell>
                <mxCell id="275" value="" style="endArrow=none;html=1;fontColor=#000000;strokeColor=#000000;entryX=0;entryY=1;entryDx=0;entryDy=0;" parent="1" target="270" edge="1">
                    <mxGeometry width="50" height="50" relative="1" as="geometry">
                        <mxPoint x="251" y="96" as="sourcePoint"/>
                        <mxPoint x="-459.15999999999985" y="140.8800000000001" as="targetPoint"/>
                        <Array as="points"/>
                    </mxGeometry>
                </mxCell>
                <mxCell id="277" value="Contact" style="ellipse;whiteSpace=wrap;html=1;fontFamily=Times New Roman;fontSize=14;fillColor=none;strokeColor=#000000;fontColor=#000000;fontStyle=1" parent="1" vertex="1">
                    <mxGeometry x="125" y="1" width="90" height="60" as="geometry"/>
                </mxCell>
                <mxCell id="278" value="mail" style="ellipse;whiteSpace=wrap;html=1;fontFamily=Times New Roman;fontSize=14;fillColor=none;strokeColor=#000000;fontColor=#000000;fontStyle=1" parent="1" vertex="1">
                    <mxGeometry x="340" y="-42" width="90" height="60" as="geometry"/>
                </mxCell>
                <mxCell id="280" value="" style="endArrow=none;html=1;fontFamily=Times New Roman;fontColor=#000000;strokeColor=#000000;exitX=1;exitY=0.5;exitDx=0;exitDy=0;" parent="1" source="277" edge="1">
                    <mxGeometry width="50" height="50" relative="1" as="geometry">
                        <mxPoint x="-311" y="430" as="sourcePoint"/>
                        <mxPoint x="251" y="97" as="targetPoint"/>
                    </mxGeometry>
                </mxCell>
                <mxCell id="281" value="" style="endArrow=none;html=1;fontFamily=Times New Roman;fontColor=#000000;strokeColor=#000000;exitX=0;exitY=1;exitDx=0;exitDy=0;" parent="1" source="278" edge="1">
                    <mxGeometry width="50" height="50" relative="1" as="geometry">
                        <mxPoint x="-366" y="372" as="sourcePoint"/>
                        <mxPoint x="251" y="96" as="targetPoint"/>
                    </mxGeometry>
                </mxCell>
                <mxCell id="283" style="edgeStyle=none;html=1;exitX=0.5;exitY=1;exitDx=0;exitDy=0;strokeColor=#000000;rounded=0;entryX=0.531;entryY=0.007;entryDx=0;entryDy=0;entryPerimeter=0;" parent="1" source="263" target="2" edge="1">
                    <mxGeometry relative="1" as="geometry">
                        <Array as="points"/>
                        <mxPoint x="445" y="178" as="sourcePoint"/>
                        <mxPoint x="435" y="230" as="targetPoint"/>
                    </mxGeometry>
                </mxCell>
                <mxCell id="284" value="&lt;font color=&quot;#000000&quot; face=&quot;Times New Roman&quot;&gt;&lt;span style=&quot;font-size: 14px&quot;&gt;&lt;b&gt;CITY_MASTER&lt;/b&gt;&lt;/span&gt;&lt;/font&gt;" style="rounded=0;whiteSpace=wrap;html=1;fillColor=none;strokeColor=#000000;" parent="1" vertex="1">
                    <mxGeometry x="-128" y="-256" width="120" height="60" as="geometry"/>
                </mxCell>
                <mxCell id="285" value="&lt;font color=&quot;#000000&quot; face=&quot;Times New Roman&quot;&gt;&lt;span style=&quot;font-size: 14px&quot;&gt;&lt;b&gt;AREA_MASTER&lt;/b&gt;&lt;/span&gt;&lt;/font&gt;" style="rounded=0;whiteSpace=wrap;html=1;fillColor=none;strokeColor=#000000;" parent="1" vertex="1">
                    <mxGeometry x="-128" y="12" width="120" height="60" as="geometry"/>
                </mxCell>
                <mxCell id="286" value="&lt;font face=&quot;Times New Roman&quot;&gt;&lt;span style=&quot;font-size: 14px&quot;&gt;&lt;b&gt;HAS&lt;/b&gt;&lt;/span&gt;&lt;/font&gt;" style="rhombus;whiteSpace=wrap;html=1;fontColor=#000000;strokeColor=#000000;fillColor=none;" parent="1" vertex="1">
                    <mxGeometry x="-108" y="-132" width="80" height="80" as="geometry"/>
                </mxCell>
                <mxCell id="287" value="&lt;font face=&quot;Times New Roman&quot;&gt;&lt;span style=&quot;font-size: 14px&quot;&gt;&lt;b&gt;HAS&lt;/b&gt;&lt;/span&gt;&lt;/font&gt;" style="rhombus;whiteSpace=wrap;html=1;fontColor=#000000;strokeColor=#000000;fillColor=none;" parent="1" vertex="1">
                    <mxGeometry x="-108" y="115" width="80" height="80" as="geometry"/>
                </mxCell>
                <mxCell id="288" value="" style="endArrow=none;html=1;fontFamily=Times New Roman;fontSize=14;strokeColor=#000000;entryX=0.5;entryY=1;entryDx=0;entryDy=0;exitX=0.5;exitY=0;exitDx=0;exitDy=0;" parent="1" source="286" target="284" edge="1">
                    <mxGeometry width="50" height="50" relative="1" as="geometry">
                        <mxPoint x="-232" y="-91" as="sourcePoint"/>
                        <mxPoint x="-182" y="-141" as="targetPoint"/>
                    </mxGeometry>
                </mxCell>
                <mxCell id="289" value="" style="endArrow=none;html=1;fontFamily=Times New Roman;fontSize=14;strokeColor=#000000;exitX=0.5;exitY=0;exitDx=0;exitDy=0;entryX=0.5;entryY=1;entryDx=0;entryDy=0;" parent="1" source="285" target="286" edge="1">
                    <mxGeometry width="50" height="50" relative="1" as="geometry">
                        <mxPoint x="-69" y="-18" as="sourcePoint"/>
                        <mxPoint x="-19" y="-68" as="targetPoint"/>
                    </mxGeometry>
                </mxCell>
                <mxCell id="290" value="" style="endArrow=none;html=1;fontFamily=Times New Roman;fontSize=14;strokeColor=#000000;exitX=0.5;exitY=0;exitDx=0;exitDy=0;entryX=0.5;entryY=1;entryDx=0;entryDy=0;" parent="1" source="287" target="285" edge="1">
                    <mxGeometry width="50" height="50" relative="1" as="geometry">
                        <mxPoint x="-99" y="96" as="sourcePoint"/>
                        <mxPoint x="-49" y="46" as="targetPoint"/>
                    </mxGeometry>
                </mxCell>
                <mxCell id="292" value="" style="endArrow=none;html=1;fontFamily=Times New Roman;fontSize=14;strokeColor=#000000;exitX=0;exitY=0.5;exitDx=0;exitDy=0;entryX=0;entryY=0.5;entryDx=0;entryDy=0;rounded=0;" parent="1" source="81" target="287" edge="1">
                    <mxGeometry width="50" height="50" relative="1" as="geometry">
                        <mxPoint x="-208" y="251" as="sourcePoint"/>
                        <mxPoint x="-223" y="146" as="targetPoint"/>
                        <Array as="points">
                            <mxPoint x="-207" y="262"/>
                            <mxPoint x="-207" y="203"/>
                            <mxPoint x="-207" y="155"/>
                        </Array>
                    </mxGeometry>
                </mxCell>
                <mxCell id="293" value="" style="endArrow=none;html=1;fontFamily=Times New Roman;fontSize=14;strokeColor=#000000;entryX=0;entryY=0.5;entryDx=0;entryDy=0;rounded=0;exitX=0.5;exitY=1;exitDx=0;exitDy=0;" parent="1" source="287" target="261" edge="1">
                    <mxGeometry width="50" height="50" relative="1" as="geometry">
                        <mxPoint x="42" y="161" as="sourcePoint"/>
                        <mxPoint x="62" y="136" as="targetPoint"/>
                        <Array as="points">
                            <mxPoint x="77" y="195"/>
                            <mxPoint x="77" y="126"/>
                        </Array>
                    </mxGeometry>
                </mxCell>
                <mxCell id="296" value="CITY_ID" style="ellipse;whiteSpace=wrap;html=1;fontFamily=Times New Roman;fontSize=14;fillColor=none;strokeColor=#000000;fontColor=#000000;fontStyle=1" parent="1" vertex="1">
                    <mxGeometry x="28" y="-286" width="90" height="60" as="geometry"/>
                </mxCell>
                <mxCell id="297" value="CITY_NAME" style="ellipse;whiteSpace=wrap;html=1;fontFamily=Times New Roman;fontSize=14;fillColor=none;strokeColor=#000000;fontColor=#000000;fontStyle=1" parent="1" vertex="1">
                    <mxGeometry x="35" y="-208" width="90" height="60" as="geometry"/>
                </mxCell>
                <mxCell id="298" value="POSTAL&lt;br&gt;CODE" style="ellipse;whiteSpace=wrap;html=1;fontFamily=Times New Roman;fontSize=14;fillColor=none;strokeColor=#000000;fontColor=#000000;fontStyle=1" parent="1" vertex="1">
                    <mxGeometry x="-268" y="-59" width="90" height="60" as="geometry"/>
                </mxCell>
                <mxCell id="299" value="AREA_NAME" style="ellipse;whiteSpace=wrap;html=1;fontFamily=Times New Roman;fontSize=14;fillColor=none;strokeColor=#000000;fontColor=#000000;fontStyle=1" parent="1" vertex="1">
                    <mxGeometry x="-266" y="80" width="90" height="60" as="geometry"/>
                </mxCell>
                <mxCell id="300" value="AREA_ID" style="ellipse;whiteSpace=wrap;html=1;fontFamily=Times New Roman;fontSize=14;fillColor=none;strokeColor=#000000;fontColor=#000000;fontStyle=1" parent="1" vertex="1">
                    <mxGeometry x="-311" y="12" width="90" height="60" as="geometry"/>
                </mxCell>
                <mxCell id="306" value="" style="endArrow=none;html=1;strokeColor=#000000;entryX=0;entryY=0.5;entryDx=0;entryDy=0;exitX=1;exitY=1;exitDx=0;exitDy=0;" parent="1" source="298" target="285" edge="1">
                    <mxGeometry width="50" height="50" relative="1" as="geometry">
                        <mxPoint x="-215" y="-133" as="sourcePoint"/>
                        <mxPoint x="-165" y="-183" as="targetPoint"/>
                    </mxGeometry>
                </mxCell>
                <mxCell id="307" value="" style="endArrow=none;html=1;strokeColor=#000000;entryX=0;entryY=0.5;entryDx=0;entryDy=0;exitX=1;exitY=0.5;exitDx=0;exitDy=0;" parent="1" source="300" target="285" edge="1">
                    <mxGeometry width="50" height="50" relative="1" as="geometry">
                        <mxPoint x="-402" y="-189" as="sourcePoint"/>
                        <mxPoint x="-352" y="-239" as="targetPoint"/>
                    </mxGeometry>
                </mxCell>
                <mxCell id="308" value="" style="endArrow=none;html=1;strokeColor=#000000;entryX=0;entryY=0.5;entryDx=0;entryDy=0;exitX=1;exitY=0;exitDx=0;exitDy=0;" parent="1" source="299" target="285" edge="1">
                    <mxGeometry width="50" height="50" relative="1" as="geometry">
                        <mxPoint x="-373" y="-252" as="sourcePoint"/>
                        <mxPoint x="-323" y="-302" as="targetPoint"/>
                    </mxGeometry>
                </mxCell>
                <mxCell id="309" value="" style="endArrow=none;html=1;strokeColor=#000000;entryX=0;entryY=0.5;entryDx=0;entryDy=0;exitX=1;exitY=0.5;exitDx=0;exitDy=0;" parent="1" source="284" target="296" edge="1">
                    <mxGeometry width="50" height="50" relative="1" as="geometry">
                        <mxPoint x="7" y="-337" as="sourcePoint"/>
                        <mxPoint x="57" y="-387" as="targetPoint"/>
                    </mxGeometry>
                </mxCell>
                <mxCell id="310" value="" style="endArrow=none;html=1;strokeColor=#000000;exitX=1;exitY=0.5;exitDx=0;exitDy=0;entryX=0;entryY=0;entryDx=0;entryDy=0;" parent="1" source="284" target="297" edge="1">
                    <mxGeometry width="50" height="50" relative="1" as="geometry">
                        <mxPoint x="197" y="-215" as="sourcePoint"/>
                        <mxPoint x="247" y="-265" as="targetPoint"/>
                    </mxGeometry>
                </mxCell>
                <mxCell id="311" value="SHIPPING" style="rounded=0;whiteSpace=wrap;html=1;fontFamily=Times New Roman;fontSize=14;fillColor=none;strokeColor=#000000;fontColor=#000000;fontStyle=1" parent="1" vertex="1">
                    <mxGeometry x="53" y="814" width="130" height="60" as="geometry"/>
                </mxCell>
                <mxCell id="314" value="" style="endArrow=none;html=1;fontColor=#000000;fontFamily=Times New Roman;fontSize=14;fillColor=none;strokeColor=#000000;fontStyle=1;entryX=0.5;entryY=0;entryDx=0;entryDy=0;exitX=0.5;exitY=1;exitDx=0;exitDy=0;" parent="1" source="311" target="336" edge="1">
                    <mxGeometry width="50" height="50" relative="1" as="geometry">
                        <mxPoint x="118" y="885" as="sourcePoint"/>
                        <mxPoint x="-255" y="1175" as="targetPoint"/>
                    </mxGeometry>
                </mxCell>
                <mxCell id="315" value="SHIPPING&lt;br&gt;ID" style="ellipse;whiteSpace=wrap;html=1;fontFamily=Times New Roman;fontSize=14;fillColor=none;strokeColor=#000000;fontColor=#000000;fontStyle=1" parent="1" vertex="1">
                    <mxGeometry x="180" y="737" width="90" height="60" as="geometry"/>
                </mxCell>
                <mxCell id="316" value="POSTAL&lt;br&gt;CODE" style="ellipse;whiteSpace=wrap;html=1;fontFamily=Times New Roman;fontSize=14;fillColor=none;strokeColor=#000000;fontColor=#000000;fontStyle=1" parent="1" vertex="1">
                    <mxGeometry x="87" y="705" width="90" height="60" as="geometry"/>
                </mxCell>
                <mxCell id="317" value="DELIVERY&lt;br&gt;STATUS" style="ellipse;whiteSpace=wrap;html=1;fontFamily=Times New Roman;fontSize=14;fillColor=none;strokeColor=#000000;fontColor=#000000;fontStyle=1" parent="1" vertex="1">
                    <mxGeometry x="-3" y="737" width="90" height="60" as="geometry"/>
                </mxCell>
                <mxCell id="318" value="" style="endArrow=none;html=1;rounded=0;fontColor=#000000;fontFamily=Times New Roman;fontSize=14;exitX=0.5;exitY=0;exitDx=0;exitDy=0;fillColor=none;strokeColor=#000000;fontStyle=1;entryX=0;entryY=1;entryDx=0;entryDy=0;" parent="1" source="311" target="315" edge="1">
                    <mxGeometry width="50" height="50" relative="1" as="geometry">
                        <mxPoint x="-336" y="786" as="sourcePoint"/>
                        <mxPoint x="-12" y="1326" as="targetPoint"/>
                    </mxGeometry>
                </mxCell>
                <mxCell id="319" value="" style="endArrow=none;html=1;rounded=0;entryX=0.5;entryY=1;entryDx=0;entryDy=0;fontColor=#000000;fontFamily=Times New Roman;fontSize=14;exitX=0.5;exitY=0;exitDx=0;exitDy=0;fillColor=none;strokeColor=#000000;fontStyle=1;" parent="1" source="311" target="316" edge="1">
                    <mxGeometry width="50" height="50" relative="1" as="geometry">
                        <mxPoint x="-238" y="762" as="sourcePoint"/>
                        <mxPoint x="-283.18019484660545" y="663.2132034355964" as="targetPoint"/>
                    </mxGeometry>
                </mxCell>
                <mxCell id="320" value="" style="endArrow=none;html=1;rounded=0;entryX=1;entryY=1;entryDx=0;entryDy=0;fontColor=#000000;fontFamily=Times New Roman;fontSize=14;exitX=0.5;exitY=0;exitDx=0;exitDy=0;fillColor=none;strokeColor=#000000;fontStyle=1" parent="1" source="311" target="317" edge="1">
                    <mxGeometry width="50" height="50" relative="1" as="geometry">
                        <mxPoint x="-208" y="712" as="sourcePoint"/>
                        <mxPoint x="-253.18019484660545" y="613.2132034355964" as="targetPoint"/>
                    </mxGeometry>
                </mxCell>
                <mxCell id="324" value="PAYMENT" style="rounded=0;whiteSpace=wrap;html=1;fontFamily=Times New Roman;fontSize=14;fillColor=none;strokeColor=#000000;fontColor=#000000;fontStyle=1" parent="1" vertex="1">
                    <mxGeometry x="265" y="1020" width="130" height="60" as="geometry"/>
                </mxCell>
                <mxCell id="325" value="PAYMENT&lt;br style=&quot;font-size: 14px&quot;&gt;ID" style="ellipse;whiteSpace=wrap;html=1;fontFamily=Times New Roman;fontSize=14;fillColor=none;strokeColor=#000000;fontColor=#000000;fontStyle=1" parent="1" vertex="1">
                    <mxGeometry x="402" y="953" width="90" height="60" as="geometry"/>
                </mxCell>
                <mxCell id="326" value="PAYMENT&amp;nbsp;&lt;br&gt;TYPE" style="ellipse;whiteSpace=wrap;html=1;fontFamily=Times New Roman;fontSize=14;fillColor=none;strokeColor=#000000;fontColor=#000000;fontStyle=1" parent="1" vertex="1">
                    <mxGeometry x="390" y="878" width="90" height="60" as="geometry"/>
                </mxCell>
                <mxCell id="327" value="AMT" style="ellipse;whiteSpace=wrap;html=1;fontFamily=Times New Roman;fontSize=14;fillColor=none;strokeColor=#000000;fontColor=#000000;fontStyle=1" parent="1" vertex="1">
                    <mxGeometry x="292" y="863" width="90" height="60" as="geometry"/>
                </mxCell>
                <mxCell id="328" value="PAYMENT&lt;br&gt;STATUS" style="ellipse;whiteSpace=wrap;html=1;fontFamily=Times New Roman;fontSize=14;fillColor=none;strokeColor=#000000;fontColor=#000000;fontStyle=1" parent="1" vertex="1">
                    <mxGeometry x="202" y="890" width="90" height="60" as="geometry"/>
                </mxCell>
                <mxCell id="329" value="PAYMENT&lt;br&gt;DATE" style="ellipse;whiteSpace=wrap;html=1;fontFamily=Times New Roman;fontSize=14;fillColor=none;strokeColor=#000000;fontColor=#000000;fontStyle=1" parent="1" vertex="1">
                    <mxGeometry x="155" y="953" width="90" height="60" as="geometry"/>
                </mxCell>
                <mxCell id="330" value="" style="endArrow=none;html=1;rounded=0;entryX=0;entryY=0.5;entryDx=0;entryDy=0;fontColor=#000000;fontFamily=Times New Roman;fontSize=14;exitX=0.5;exitY=0;exitDx=0;exitDy=0;fillColor=none;strokeColor=#000000;fontStyle=1" parent="1" source="324" target="325" edge="1">
                    <mxGeometry width="50" height="50" relative="1" as="geometry">
                        <mxPoint x="338" y="973" as="sourcePoint"/>
                        <mxPoint x="457" y="888" as="targetPoint"/>
                    </mxGeometry>
                </mxCell>
                <mxCell id="331" value="" style="endArrow=none;html=1;rounded=0;entryX=0;entryY=1;entryDx=0;entryDy=0;fontColor=#000000;fontFamily=Times New Roman;fontSize=14;exitX=0.5;exitY=0;exitDx=0;exitDy=0;fillColor=none;strokeColor=#000000;fontStyle=1" parent="1" source="324" target="326" edge="1">
                    <mxGeometry width="50" height="50" relative="1" as="geometry">
                        <mxPoint x="294" y="947" as="sourcePoint"/>
                        <mxPoint x="413" y="862" as="targetPoint"/>
                    </mxGeometry>
                </mxCell>
                <mxCell id="332" value="" style="endArrow=none;html=1;rounded=0;entryX=0.5;entryY=1;entryDx=0;entryDy=0;fontColor=#000000;fontFamily=Times New Roman;fontSize=14;exitX=0.5;exitY=0;exitDx=0;exitDy=0;fillColor=none;strokeColor=#000000;fontStyle=1" parent="1" source="324" target="327" edge="1">
                    <mxGeometry width="50" height="50" relative="1" as="geometry">
                        <mxPoint x="337" y="966" as="sourcePoint"/>
                        <mxPoint x="456" y="881" as="targetPoint"/>
                    </mxGeometry>
                </mxCell>
                <mxCell id="333" value="" style="endArrow=none;html=1;rounded=0;entryX=1;entryY=1;entryDx=0;entryDy=0;fontColor=#000000;fontFamily=Times New Roman;fontSize=14;exitX=0.5;exitY=0;exitDx=0;exitDy=0;fillColor=none;strokeColor=#000000;fontStyle=1" parent="1" source="324" target="328" edge="1">
                    <mxGeometry width="50" height="50" relative="1" as="geometry">
                        <mxPoint x="297" y="958" as="sourcePoint"/>
                        <mxPoint x="416" y="873" as="targetPoint"/>
                    </mxGeometry>
                </mxCell>
                <mxCell id="334" value="" style="endArrow=none;html=1;rounded=0;entryX=0.5;entryY=0;entryDx=0;entryDy=0;fontColor=#000000;fontFamily=Times New Roman;fontSize=14;exitX=1;exitY=0.5;exitDx=0;exitDy=0;fillColor=none;strokeColor=#000000;fontStyle=1" parent="1" source="329" target="324" edge="1">
                    <mxGeometry width="50" height="50" relative="1" as="geometry">
                        <mxPoint x="177" y="1048" as="sourcePoint"/>
                        <mxPoint x="296" y="963" as="targetPoint"/>
                    </mxGeometry>
                </mxCell>
                <mxCell id="335" value="" style="endArrow=none;html=1;rounded=0;entryX=0;entryY=0.5;entryDx=0;entryDy=0;fontColor=#000000;fontFamily=Times New Roman;fontSize=14;exitX=1;exitY=0.5;exitDx=0;exitDy=0;fillColor=none;strokeColor=#000000;fontStyle=1" parent="1" source="324" target="145" edge="1">
                    <mxGeometry width="50" height="50" relative="1" as="geometry">
                        <mxPoint x="424" y="1101" as="sourcePoint"/>
                        <mxPoint x="543" y="1016" as="targetPoint"/>
                    </mxGeometry>
                </mxCell>
                <mxCell id="336" value="genertaes" style="rhombus;whiteSpace=wrap;html=1;fontFamily=Times New Roman;fontSize=14;fillColor=none;strokeColor=#000000;fontColor=#000000;fontStyle=1" parent="1" vertex="1">
                    <mxGeometry x="78" y="1010" width="80" height="80" as="geometry"/>
                </mxCell>
                <mxCell id="337" value="" style="endArrow=none;html=1;rounded=0;entryX=0;entryY=0.5;entryDx=0;entryDy=0;fontColor=#000000;fontFamily=Times New Roman;fontSize=14;exitX=1;exitY=0.5;exitDx=0;exitDy=0;fillColor=none;strokeColor=#000000;fontStyle=1" parent="1" source="336" target="324" edge="1">
                    <mxGeometry width="50" height="50" relative="1" as="geometry">
                        <mxPoint x="213" y="1137" as="sourcePoint"/>
                        <mxPoint x="298" y="1174" as="targetPoint"/>
                    </mxGeometry>
                </mxCell>
                <mxCell id="339" value="" style="endArrow=none;html=1;exitX=0;exitY=0.5;exitDx=0;exitDy=0;fontColor=#000000;fontFamily=Times New Roman;fontSize=14;fillColor=none;strokeColor=#000000;fontStyle=1;entryX=1;entryY=0.5;entryDx=0;entryDy=0;" parent="1" source="336" target="42" edge="1">
                    <mxGeometry width="50" height="50" relative="1" as="geometry">
                        <mxPoint x="9" y="1093" as="sourcePoint"/>
                        <mxPoint x="9" y="921" as="targetPoint"/>
                    </mxGeometry>
                </mxCell>
                <mxCell id="340" value="" style="endArrow=none;html=1;strokeColor=#000000;exitX=1;exitY=0.5;exitDx=0;exitDy=0;entryX=0.5;entryY=0;entryDx=0;entryDy=0;rounded=0;" edge="1" parent="1" source="287" target="58">
                    <mxGeometry width="50" height="50" relative="1" as="geometry">
                        <mxPoint x="-28" y="156" as="sourcePoint"/>
                        <mxPoint x="656" y="155" as="targetPoint"/>
                        <Array as="points">
                            <mxPoint x="38" y="155"/>
                            <mxPoint x="38" y="-130"/>
                            <mxPoint x="967" y="-130"/>
                        </Array>
                    </mxGeometry>
                </mxCell>
            </root>
        </mxGraphModel>
    </diagram>
</mxfile>